<svg width="40" height="40" viewBox="0 0 40 40" fill="none" xmlns="http://www.w3.org/2000/svg">
<g clip-path="url(#clip0_32_36)">
<path d="M34.43 0.265015H5.72239C2.6753 0.265015 0.205145 2.71825 0.205145 5.74447V34.2554C0.205145 37.2816 2.6753 39.7349 5.72239 39.7349H34.43C37.4771 39.7349 39.9472 37.2816 39.9472 34.2554V5.74447C39.9472 2.71825 37.4771 0.265015 34.43 0.265015Z" fill="#000000"/>
<path d="M27.8761 15.5904C30.0234 13.4577 31.6521 10.6731 30.6731 9.70081C29.6943 8.72856 26.8904 10.346 24.743 12.4788L23.5278 13.6856C23.3301 13.882 23.0647 13.9965 22.7852 14.006L10.2871 14.6301C9.65321 14.656 9.15843 15.6123 9.60701 16.0578C9.69669 16.1468 9.80825 16.2111 9.93062 16.2442L17.0525 17.8051C17.8702 18.0262 18.1421 19.0423 17.5428 19.6375L14.6914 22.9003C14.518 23.0726 14.2917 23.1825 14.0483 23.2128L10.2282 23.9538C10.0728 23.9731 9.92833 24.0434 9.8176 24.1533C9.45214 24.5163 9.59147 25.1335 10.078 25.3068L13.0592 26.6483C13.303 26.758 13.4984 26.952 13.6089 27.1942L14.9596 30.1551C15.1341 30.6381 15.7556 30.7764 16.121 30.4137C16.2318 30.3035 16.3025 30.16 16.3219 30.0057L17.068 26.2118C17.0985 25.9701 17.2092 25.7454 17.3827 25.5731L20.6681 22.7412C21.2673 22.1461 22.2904 22.4162 22.513 23.2283L24.0847 30.3014C24.118 30.423 24.1827 30.5337 24.2724 30.6227C24.721 31.0682 25.6839 30.577 25.7099 29.9474L26.3384 17.5348C26.3479 17.2572 26.4632 16.9937 26.6609 16.7973L27.8761 15.5904Z" fill="white" stroke="white"/>
</g>
<defs>
<clipPath id="clip0_32_36">
<rect width="40" height="40" fill="white"/>
</clipPath>
</defs>
</svg>
