<svg width="12" height="12" viewBox="0 0 12 12" fill="none" xmlns="http://www.w3.org/2000/svg">
<g clip-path="url(#clip0_60_7)">
<path d="M12 9.29401C11.8254 9.36007 11.6326 9.35992 11.458 9.2936C11.2835 9.22728 11.1392 9.09938 11.0525 8.93401L9.32751 6.54851L9.07751 6.21501L7.07601 8.93701C6.9945 9.09544 6.85808 9.21875 6.69226 9.28391C6.52643 9.34906 6.34256 9.35158 6.17501 9.29101L8.75401 5.83101L6.35501 2.70551C6.5275 2.64335 6.71615 2.64252 6.88919 2.70318C7.06222 2.76383 7.20907 2.88226 7.30501 3.03851L9.09301 5.45351L10.891 3.04851C10.9731 2.89291 11.1096 2.77291 11.2744 2.71133C11.4393 2.64975 11.621 2.65088 11.785 2.71451L10.854 3.95001L9.59301 5.59151C9.55799 5.62275 9.52997 5.66104 9.51078 5.70386C9.49159 5.74669 9.48167 5.79308 9.48167 5.84001C9.48167 5.88694 9.49159 5.93334 9.51078 5.97616C9.52997 6.01899 9.55799 6.05727 9.59301 6.08851L11.995 9.29451L12 9.29401ZM0.001006 5.78801L0.211006 4.75051C0.788006 2.69901 3.14001 1.84551 4.75801 3.11551C5.70551 3.86001 5.94201 4.91401 5.89551 6.10201H0.558006C0.471506 8.22351 2.00251 9.50451 3.96001 8.85001C4.27734 8.73579 4.56138 8.54463 4.78668 8.29367C5.01199 8.04271 5.17153 7.73978 5.25101 7.41201C5.35451 7.07901 5.52501 7.02201 5.83801 7.11801C5.78585 7.5242 5.64226 7.91328 5.41804 8.25597C5.19382 8.59866 4.89481 8.88605 4.54351 9.09651C3.96321 9.41393 3.29742 9.53973 2.64132 9.45595C1.98522 9.37216 1.37241 9.08307 0.890506 8.63001C0.414021 8.09371 0.126044 7.41626 0.070506 6.70101C0.070506 6.58351 0.030506 6.47351 0.003506 6.36801C0.00107201 6.17485 -9.46786e-05 5.98168 5.99814e-06 5.78851L0.001006 5.78801ZM0.564506 5.64501H5.39151C5.36151 4.10701 4.39101 3.01601 3.09651 3.00601C1.65551 2.98601 0.624506 4.05301 0.561006 5.63801L0.564506 5.64501Z" fill="black"/>
</g>
<defs>
<clipPath id="clip0_60_7">
<rect width="12" height="12" fill="white"/>
</clipPath>
</defs>
</svg>
